<?xml version="1.0" encoding="UTF-8"?>
<svg width="1200px" height="1200px" viewBox="0 0 1200 1200" xmlns="http://www.w3.org/2000/svg" xmlns:xlink="http://www.w3.org/1999/xlink" version="1.1">
 <!-- Generated by Pixelmator Pro 1.8 -->
 <path id="Rectangle" d="M-44 1256 L1253 1256 1253 -28 -44 -28 Z" fill="#000000" fill-opacity="1" stroke="none"/>
 <path id="Path" d="M794.729 404.761 C768.408 207.589 701.799 43 599.49 43 497.181 43 430.572 207.589 404.251 404.761 207.079 431.082 42.49 497.691 42.49 600 42.49 702.309 207.108 768.918 404.251 795.239 430.572 992.382 497.181 1157 599.49 1157 701.799 1157 768.408 992.382 794.729 795.239 991.901 768.918 1156.49 702.309 1156.49 600 1156.49 497.691 991.872 431.082 794.729 404.761 Z M397.816 737.807 C208.984 710.534 98.854 648.11 98.854 600 98.854 551.89 208.984 489.466 397.816 462.193 393.66 507.648 391.495 554.055 391.495 600 391.495 645.945 393.66 692.381 397.816 737.807 Z M599.49 99.364 C647.6 99.364 710.024 209.494 737.297 398.326 691.871 394.17 645.435 392.005 599.49 392.005 553.545 392.005 507.109 394.17 461.683 398.326 488.956 209.494 551.38 99.364 599.49 99.364 Z M801.164 737.807 C791.871 739.163 753.747 743.637 744.108 744.589 743.156 754.257 738.653 792.352 737.326 801.646 710.053 990.477 647.629 1100.607 599.519 1100.607 551.409 1100.607 488.985 990.477 461.712 801.646 460.384 792.352 455.882 754.228 454.93 744.589 450.543 699.827 447.888 651.746 447.888 600 447.888 548.254 450.543 500.173 454.93 455.382 499.692 450.995 547.773 448.34 599.519 448.34 651.265 448.34 699.346 450.995 744.108 455.382 753.776 456.334 791.871 460.836 801.164 462.164 989.996 489.437 1100.155 551.89 1100.155 599.971 1100.155 648.052 989.996 710.534 801.164 737.807 Z" fill="#f2f2f2" fill-opacity="1" stroke="none"/>
</svg>
