<svg width="60" height="60" viewBox="0 0 60 60" fill="none" xmlns="http://www.w3.org/2000/svg">
<path d="M11.1099 40.5899L14.3699 43.8499L21.8199 36.3999" stroke="#F2F2F2" stroke-miterlimit="10"/>
<path d="M38.1899 40.5899L41.4499 43.8499L48.8999 36.3999" stroke="#F2F2F2" stroke-miterlimit="10"/>
<path d="M16.46 50.8701C22.397 50.8701 27.21 46.0572 27.21 40.1201C27.21 34.1831 22.397 29.3701 16.46 29.3701C10.5229 29.3701 5.70996 34.1831 5.70996 40.1201C5.70996 46.0572 10.5229 50.8701 16.46 50.8701Z" stroke="#F2F2F2" stroke-miterlimit="10"/>
<path d="M43.54 50.8701C49.4771 50.8701 54.29 46.0572 54.29 40.1201C54.29 34.1831 49.4771 29.3701 43.54 29.3701C37.603 29.3701 32.79 34.1831 32.79 40.1201C32.79 46.0572 37.603 50.8701 43.54 50.8701Z" stroke="#F2F2F2" stroke-miterlimit="10"/>
<path d="M30 9.12988C27.8739 9.12988 25.7955 9.76036 24.0276 10.9416C22.2598 12.1228 20.8819 13.8017 20.0683 15.766C19.2547 17.7303 19.0418 19.8918 19.4566 21.9771C19.8714 24.0624 20.8952 25.9779 22.3986 27.4813C23.902 28.9847 25.8175 30.0085 27.9028 30.4233C29.9881 30.8381 32.1495 30.6252 34.1139 29.8116C36.0782 28.9979 37.7571 27.6201 38.9383 25.8523C40.1195 24.0844 40.75 22.006 40.75 19.8799C40.75 17.0288 39.6174 14.2945 37.6014 12.2785C35.5854 10.2625 32.8511 9.12988 30 9.12988ZM27.9 24.4099L24.24 20.7399L25.05 19.9399L27.9 22.7999L34.95 15.7999L35.76 16.6099L27.9 24.4099Z" fill="#F2F2F2"/>
</svg>
