<svg width="60" height="60" viewBox="0 0 60 60" fill="none" xmlns="http://www.w3.org/2000/svg">
<path d="M30.1502 40.5401C35.9326 40.5401 40.6202 35.8525 40.6202 30.0701C40.6202 24.2877 35.9326 19.6001 30.1502 19.6001C24.3678 19.6001 19.6802 24.2877 19.6802 30.0701C19.6802 35.8525 24.3678 40.5401 30.1502 40.5401Z" stroke="#F2F2F2" stroke-miterlimit="10"/>
<path d="M30.1499 10.8301V19.6001" stroke="#F2F2F2" stroke-miterlimit="10"/>
<path d="M30.15 10.83C32.464 10.83 34.34 8.95402 34.34 6.63995C34.34 4.32588 32.464 2.44995 30.15 2.44995C27.8359 2.44995 25.96 4.32588 25.96 6.63995C25.96 8.95402 27.8359 10.83 30.15 10.83Z" fill="#F2F2F2"/>
<path d="M14.6401 44.4801L22.5301 36.5901" stroke="#F2F2F2" stroke-miterlimit="10"/>
<path d="M9.7798 56.3201C13.6348 56.3201 16.7598 53.1951 16.7598 49.3401C16.7598 45.4852 13.6348 42.3601 9.7798 42.3601C5.92486 42.3601 2.7998 45.4852 2.7998 49.3401C2.7998 53.1951 5.92486 56.3201 9.7798 56.3201Z" fill="#F2F2F2"/>
<path d="M44.9901 45.14L37.1001 37.24" stroke="#F2F2F2" stroke-miterlimit="10"/>
<path d="M48.9501 54.4901C52.0319 54.4901 54.5301 51.9918 54.5301 48.9101C54.5301 45.8283 52.0319 43.3301 48.9501 43.3301C45.8684 43.3301 43.3701 45.8283 43.3701 48.9101C43.3701 51.9918 45.8684 54.4901 48.9501 54.4901Z" fill="#F2F2F2"/>
</svg>
