<svg width="60" height="60" viewBox="0 0 60 60" fill="none" xmlns="http://www.w3.org/2000/svg">
<path d="M37.4001 18.5899C37.4001 14.503 34.087 11.1899 30.0001 11.1899C25.9132 11.1899 22.6001 14.503 22.6001 18.5899C22.6001 22.6768 25.9132 25.9899 30.0001 25.9899C34.087 25.9899 37.4001 22.6768 37.4001 18.5899Z" fill="#F2F2F2"/>
<path d="M35 37.4099H25V47.4099H35V37.4099Z" stroke="#F2F2F2" stroke-miterlimit="10"/>
<path d="M56.75 37.4099H46.75V47.4099H56.75V37.4099Z" stroke="#F2F2F2" stroke-miterlimit="10"/>
<path d="M13.25 37.4099H3.25V47.4099H13.25V37.4099Z" stroke="#F2F2F2" stroke-miterlimit="10"/>
<path d="M46.75 42.4099H35" stroke="#F2F2F2" stroke-miterlimit="10"/>
<path d="M8.25 37.4101V18.5901H51.75V37.4101" stroke="#F2F2F2" stroke-miterlimit="10"/>
<path d="M25 42.4099H13.25" stroke="#F2F2F2" stroke-miterlimit="10"/>
<path d="M29.9102 24.5901V37.4101" stroke="#F2F2F2" stroke-miterlimit="10"/>
</svg>
