<svg width="60" height="60" viewBox="0 0 60 60" fill="none" xmlns="http://www.w3.org/2000/svg">
<path d="M30 54.8401C42.4264 54.8401 52.5 44.7665 52.5 32.3401C52.5 19.9137 42.4264 9.84009 30 9.84009C17.5736 9.84009 7.5 19.9137 7.5 32.3401C7.5 44.7665 17.5736 54.8401 30 54.8401Z" stroke="#F2F2F2" stroke-miterlimit="10"/>
<path d="M30.0002 35.89C31.9608 35.89 33.5502 34.3006 33.5502 32.34C33.5502 30.3794 31.9608 28.79 30.0002 28.79C28.0396 28.79 26.4502 30.3794 26.4502 32.34C26.4502 34.3006 28.0396 35.89 30.0002 35.89Z" fill="#F2F2F2"/>
<path d="M40.15 32.3401H30V17.3401" stroke="#F2F2F2" stroke-miterlimit="10"/>
<path d="M24.9302 5.15991H35.0702" stroke="#F2F2F2" stroke-miterlimit="10"/>
<path d="M45.4902 9.20996L52.6702 16.38" stroke="#F2F2F2" stroke-miterlimit="10"/>
<path d="M14.5101 9.20996L7.33008 16.38" stroke="#F2F2F2" stroke-miterlimit="10"/>
<path d="M30 5.15991V9.83991" stroke="#F2F2F2" stroke-miterlimit="10"/>
</svg>
