<svg width="60" height="60" viewBox="0 0 60 60" fill="none" xmlns="http://www.w3.org/2000/svg">
<path d="M36.5401 46.4799H40.5901C43.0652 46.4813 45.5067 45.9058 47.7207 44.7992C49.9347 43.6927 51.8604 42.0854 53.345 40.1049C54.8296 38.1244 55.8323 35.8252 56.2736 33.3897C56.7148 30.9542 56.5824 28.4494 55.887 26.0739C55.1915 23.6985 53.9521 21.5178 52.267 19.7048C50.5819 17.8918 48.4975 16.4965 46.1792 15.6294C43.8609 14.7623 41.3724 14.4474 38.9112 14.7096C36.45 14.9718 34.0837 15.8039 32.0001 17.1399C30.2705 15.425 28.0742 14.2574 25.6853 13.7828C23.2963 13.3083 20.8205 13.5478 18.5668 14.4714C16.3131 15.3951 14.3813 16.962 13.0125 18.9767C11.6438 20.9913 10.8986 23.3645 10.8701 25.7999C8.46399 26.5667 6.41111 28.1681 5.08174 30.3152C3.75236 32.4623 3.23401 35.0137 3.62018 37.5094C4.00635 40.005 5.27162 42.2804 7.18776 43.9253C9.1039 45.5702 11.5448 46.4762 14.0701 46.4799H21.0001" stroke="#F2F2F2" stroke-miterlimit="10"/>
<path d="M29.9102 40.0701V52.8801" stroke="#F2F2F2" stroke-miterlimit="10"/>
<path d="M20.1299 40.07L29.9099 30.29L39.6799 40.07H20.1299Z" fill="#F2F2F2"/>
</svg>
