<svg width="60" height="60" viewBox="0 0 60 60" fill="none" xmlns="http://www.w3.org/2000/svg">
<path d="M29.9998 34.1801C32.3084 34.1801 34.1798 32.3086 34.1798 30.0001C34.1798 27.6915 32.3084 25.8201 29.9998 25.8201C27.6913 25.8201 25.8198 27.6915 25.8198 30.0001C25.8198 32.3086 27.6913 34.1801 29.9998 34.1801Z" fill="#F2F2F2"/>
<path d="M12.7299 47.27C10.4603 45.003 8.65988 42.3108 7.43148 39.3475C6.20308 36.3842 5.5708 33.2078 5.5708 30C5.5708 26.7921 6.20308 23.6158 7.43148 20.6525C8.65988 17.6891 10.4603 14.997 12.7299 12.73" stroke="#F2F2F2" stroke-miterlimit="10"/>
<path d="M47.27 12.73C49.5396 14.997 51.34 17.6891 52.5684 20.6525C53.7968 23.6158 54.4291 26.7921 54.4291 30C54.4291 33.2078 53.7968 36.3842 52.5684 39.3475C51.34 42.3108 49.5396 45.003 47.27 47.27" stroke="#F2F2F2" stroke-miterlimit="10"/>
<path d="M17.7301 42.28C14.4741 39.0227 12.645 34.6056 12.645 30C12.645 25.3944 14.4741 20.9773 17.7301 17.72" stroke="#F2F2F2" stroke-miterlimit="10"/>
<path d="M42.2798 17.73C43.8914 19.3411 45.1698 21.254 46.042 23.3593C46.9142 25.4646 47.3632 27.7211 47.3632 30C47.3632 32.2788 46.9142 34.5353 46.042 36.6406C45.1698 38.746 43.8914 40.6588 42.2798 42.27" stroke="#F2F2F2" stroke-miterlimit="10"/>
<path d="M22.7201 37.28C20.7905 35.3486 19.7065 32.7301 19.7065 30C19.7065 27.2698 20.7905 24.6513 22.7201 22.72" stroke="#F2F2F2" stroke-miterlimit="10"/>
<path d="M37.2798 22.72C39.2095 24.6513 40.2934 27.2698 40.2934 30C40.2934 32.7301 39.2095 35.3486 37.2798 37.28" stroke="#F2F2F2" stroke-miterlimit="10"/>
</svg>
